<svg width="20" height="20" viewBox="0 0 20 20" fill="none" xmlns="http://www.w3.org/2000/svg">
<path fill-rule="evenodd" clip-rule="evenodd" d="M8.33335 13.3334C8.33335 13.7917 7.95835 14.1667 7.50002 14.1667C7.04169 14.1667 6.66669 13.7917 6.66669 13.3334V10C6.66669 9.54169 7.04169 9.16669 7.50002 9.16669C7.95835 9.16669 8.33335 9.54169 8.33335 10V13.3334ZM13.3334 13.3334C13.3334 13.7917 12.9584 14.1667 12.5 14.1667C12.0417 14.1667 11.6667 13.7917 11.6667 13.3334V10C11.6667 9.54169 12.0417 9.16669 12.5 9.16669C12.9584 9.16669 13.3334 9.54169 13.3334 10V13.3334ZM15 15.8334C15 16.2925 14.6267 16.6667 14.1667 16.6667H5.83335C5.37335 16.6667 5.00002 16.2925 5.00002 15.8334V6.66669H15V15.8334ZM8.33335 3.60669C8.33335 3.47752 8.51169 3.33335 8.75002 3.33335H11.25C11.4884 3.33335 11.6667 3.47752 11.6667 3.60669V5.00002H8.33335V3.60669ZM17.5 5.00002H16.6667H13.3334V3.60669C13.3334 2.53669 12.3992 1.66669 11.25 1.66669H8.75002C7.60085 1.66669 6.66669 2.53669 6.66669 3.60669V5.00002H3.33335H2.50002C2.04169 5.00002 1.66669 5.37502 1.66669 5.83335C1.66669 6.29169 2.04169 6.66669 2.50002 6.66669H3.33335V15.8334C3.33335 17.2117 4.45502 18.3334 5.83335 18.3334H14.1667C15.545 18.3334 16.6667 17.2117 16.6667 15.8334V6.66669H17.5C17.9584 6.66669 18.3334 6.29169 18.3334 5.83335C18.3334 5.37502 17.9584 5.00002 17.5 5.00002Z" fill="black" fill-opacity="0.5"/>
</svg>
